<?xml version="1.0" standalone="no"?>
<!DOCTYPE svg PUBLIC "-//W3C//DTD SVG 20010904//EN"
 "http://www.w3.org/TR/2001/REC-SVG-20010904/DTD/svg10.dtd">
<svg version="1.0" xmlns="http://www.w3.org/2000/svg"
 width="74.000000pt" height="75.000000pt" viewBox="0 0 74.000000 75.000000"
 preserveAspectRatio="xMidYMid meet">

<g transform="translate(0.000000,75.000000) scale(0.100000,-0.100000)"
fill="#000000" stroke="none">
<path d="M325 737 c-95 -32 -171 -103 -205 -193 -10 -28 -28 -67 -39 -85 -25
-40 -26 -81 -6 -139 8 -24 14 -45 12 -46 -2 -2 -19 1 -37 6 -25 7 -36 6 -42
-3 -14 -21 -9 -27 32 -33 37 -6 40 -9 40 -38 -1 -17 -7 -58 -15 -91 -18 -76
-19 -106 -2 -99 19 7 45 64 50 113 7 55 23 73 43 47 12 -17 14 -17 14 -4 0 27
20 31 43 10 12 -12 47 -32 77 -46 112 -52 251 -29 346 57 22 19 48 36 59 38
11 3 21 13 23 23 3 12 0 16 -8 11 -8 -5 -11 -3 -7 6 45 109 46 200 5 290 -51
111 -152 180 -273 185 -40 2 -87 -2 -110 -9z m212 -37 c110 -48 177 -153 177
-275 0 -80 -34 -167 -68 -173 -11 -3 -16 0 -12 7 9 14 -39 15 -65 0 -23 -12
-129 -2 -129 12 0 5 7 9 15 9 18 0 20 16 3 23 -7 2 -50 -5 -96 -16 -45 -11
-85 -18 -88 -15 -3 4 -1 23 5 45 14 49 14 129 1 154 -13 23 7 64 30 64 11 0
16 13 18 47 3 41 0 49 -23 64 -25 16 -28 16 -63 -2 -56 -28 -58 -29 -38 -5 11
11 28 21 38 21 11 0 17 4 14 9 -6 10 51 40 99 52 46 12 128 3 182 -21z m-102
-475 c44 -27 67 -32 60 -12 -4 9 13 12 65 12 38 0 70 -3 70 -8 0 -13 -93 -67
-135 -78 -59 -16 -152 -6 -211 24 -85 43 -85 52 -2 70 100 20 107 20 153 -8z"/>
<path d="M440 527 c0 -34 4 -47 14 -47 11 0 13 9 9 38 -9 57 -23 63 -23 9z"/>
<path d="M600 527 c0 -40 2 -44 24 -44 19 0 23 5 22 23 0 13 -7 24 -13 24 -7
0 -13 6 -13 14 0 8 -4 18 -10 21 -6 4 -10 -11 -10 -38z"/>
<path d="M370 520 c0 -39 1 -41 28 -38 24 3 27 7 27 38 0 31 -3 35 -27 38 -27
3 -28 1 -28 -38z m36 0 c0 -11 -4 -20 -8 -20 -4 0 -8 9 -8 20 0 11 4 20 8 20
4 0 8 -9 8 -20z"/>
<path d="M480 525 c-16 -19 3 -45 31 -45 14 0 19 7 19 30 0 23 -5 30 -19 30
-10 0 -24 -7 -31 -15z"/>
<path d="M550 525 c-7 -8 -10 -22 -6 -30 6 -17 46 -21 46 -5 0 6 -7 10 -15 10
-8 0 -15 5 -15 10 0 6 7 10 16 10 8 0 12 5 9 10 -9 14 -21 12 -35 -5z"/>
<path d="M370 381 c0 -23 5 -41 10 -41 6 0 10 4 10 9 0 5 9 13 21 16 31 10 21
49 -13 53 -27 3 -28 1 -28 -37z m40 9 c0 -5 -4 -10 -10 -10 -5 0 -10 5 -10 10
0 6 5 10 10 10 6 0 10 -4 10 -10z"/>
<path d="M444 385 c-4 -8 -4 -22 0 -30 7 -18 42 -20 49 -2 3 6 6 2 6 -10 1
-24 21 -43 21 -20 0 8 9 17 20 20 21 5 29 46 10 48 -5 1 -16 2 -22 3 -7 1 -18
-2 -25 -6 -6 -5 -14 -5 -18 2 -9 15 -35 12 -41 -5z m31 -15 c3 -5 1 -10 -4
-10 -6 0 -11 5 -11 10 0 6 2 10 4 10 3 0 8 -4 11 -10z"/>
<path d="M572 374 c2 -23 9 -30 31 -32 23 -3 27 0 27 22 0 14 -4 28 -10 31 -5
3 -10 -3 -10 -14 0 -12 -4 -21 -10 -21 -5 0 -10 6 -10 14 0 8 -5 18 -11 21 -7
5 -9 -3 -7 -21z"/>
<path d="M647 393 c-13 -12 -7 -42 11 -52 16 -10 16 -10 -2 -11 -14 0 -17 -3
-10 -10 21 -21 44 0 44 41 0 31 -4 39 -18 39 -10 0 -22 -3 -25 -7z"/>
</g>
</svg>
