<?xml version="1.0" standalone="no"?>
<!DOCTYPE svg PUBLIC "-//W3C//DTD SVG 20010904//EN"
 "http://www.w3.org/TR/2001/REC-SVG-20010904/DTD/svg10.dtd">
<svg version="1.0" xmlns="http://www.w3.org/2000/svg"
 width="900.000000pt" height="900.000000pt" viewBox="0 0 900.000000 900.000000"
 preserveAspectRatio="xMidYMid meet">

<g transform="translate(0.000000,900.000000) scale(0.100000,-0.100000)"
fill="#000000" stroke="none">
<path d="M4165 8633 c-16 -1 -79 -8 -140 -14 -815 -80 -1629 -437 -2256 -987
-770 -676 -1242 -1557 -1380 -2576 -30 -221 -37 -671 -14 -901 58 -587 226
-1129 505 -1627 84 -149 269 -422 386 -568 139 -174 451 -486 624 -624 613
-489 1285 -773 2078 -878 226 -30 749 -32 967 -4 1045 134 1932 600 2614 1373
552 624 886 1375 997 2238 29 219 26 741 -4 970 -103 785 -390 1461 -880 2077
-136 171 -449 484 -622 622 -140 113 -417 301 -555 379 -505 283 -1050 454
-1635 512 -138 14 -582 19 -685 8z m530 -358 c1209 -59 2347 -750 2987 -1815
294 -488 465 -1024 519 -1619 15 -170 6 -611 -16 -771 -108 -797 -424 -1479
-956 -2066 -307 -339 -728 -653 -1141 -849 -350 -166 -730 -280 -1123 -335
-288 -42 -730 -39 -1040 6 -1209 174 -2255 928 -2809 2024 -270 534 -400 1088
-397 1699 3 603 122 1112 386 1646 173 350 340 594 602 881 311 341 666 605
1098 819 493 244 972 365 1515 384 107 3 206 6 220 4 14 -1 84 -4 155 -8z"/>
<path d="M3681 5059 c-14 -5 -68 -51 -120 -102 -336 -324 -703 -520 -1090
-583 -47 -8 -153 -14 -234 -14 -160 0 -180 -5 -229 -57 -52 -54 -63 -135 -28
-203 43 -84 107 -105 290 -97 398 19 792 149 1147 380 192 125 456 355 492
430 59 123 -22 258 -155 256 -27 0 -60 -5 -73 -10z"/>
<path d="M5110 5063 c-60 -23 -110 -98 -110 -166 0 -69 26 -112 127 -207 407
-386 878 -615 1388 -676 256 -30 375 -10 425 72 48 76 36 168 -30 228 -47 42
-57 44 -275 50 -192 5 -288 22 -461 81 -283 96 -545 262 -800 507 -55 53 -113
102 -128 108 -29 11 -110 12 -136 3z"/>
<path d="M4305 3100 c-301 -32 -595 -155 -867 -362 -244 -185 -565 -562 -584
-684 -5 -36 -2 -54 20 -97 46 -93 138 -129 229 -89 35 16 57 36 94 88 189 265
403 470 638 610 298 177 632 227 941 139 190 -54 444 -203 619 -362 93 -86
229 -239 301 -341 74 -104 99 -127 156 -144 31 -9 50 -9 86 1 120 32 169 156
107 270 -45 82 -178 252 -286 365 -429 449 -937 661 -1454 606z"/>
</g>
</svg>
